<svg width="41" height="40" viewBox="0 0 41 40" fill="none" xmlns="http://www.w3.org/2000/svg">
<path d="M24.4238 20C24.4238 22.1143 22.6671 23.8281 20.5 23.8281C18.3329 23.8281 16.5762 22.1143 16.5762 20C16.5762 17.8857 18.3329 16.1719 20.5 16.1719C22.6671 16.1719 24.4238 17.8857 24.4238 20Z" fill="#70625D"/>
<path d="M29.6765 13.227C29.4879 12.7283 29.1869 12.277 28.7959 11.9065C28.4162 11.525 27.9539 11.2314 27.4424 11.0474C27.0276 10.8903 26.4045 10.7032 25.2569 10.6522C24.0153 10.597 23.6431 10.5851 20.5 10.5851C17.3567 10.5851 16.9844 10.5967 15.7432 10.6519C14.5955 10.7032 13.9721 10.8903 13.5576 11.0474C13.0462 11.2314 12.5836 11.525 12.2041 11.9065C11.8131 12.277 11.5122 12.728 11.3233 13.227C11.1622 13.6317 10.9704 14.2399 10.9182 15.3596C10.8616 16.5705 10.8494 16.9337 10.8494 20.0004C10.8494 23.0668 10.8616 23.4299 10.9182 24.6412C10.9704 25.7609 11.1622 26.3688 11.3233 26.7734C11.5122 27.2724 11.8128 27.7234 12.2038 28.0939C12.5836 28.4754 13.0459 28.769 13.5573 28.953C13.9721 29.1105 14.5955 29.2975 15.7432 29.3485C16.9844 29.4037 17.3563 29.4153 20.4997 29.4153C23.6434 29.4153 24.0156 29.4037 25.2565 29.3485C26.4042 29.2975 27.0276 29.1105 27.4424 28.953C28.4691 28.5667 29.2805 27.775 29.6765 26.7734C29.8376 26.3688 30.0293 25.7609 30.0819 24.6412C30.1385 23.4299 30.1504 23.0668 30.1504 20.0004C30.1504 16.9337 30.1385 16.5705 30.0819 15.3596C30.0296 14.2399 29.8379 13.6317 29.6765 13.227ZM20.5 25.8973C17.1615 25.8973 14.4551 23.2572 14.4551 20.0001C14.4551 16.7429 17.1615 14.1028 20.5 14.1028C23.8383 14.1028 26.5447 16.7429 26.5447 20.0001C26.5447 23.2572 23.8383 25.8973 20.5 25.8973ZM26.7837 15.2479C26.0035 15.2479 25.371 14.6308 25.371 13.8697C25.371 13.1086 26.0035 12.4915 26.7837 12.4915C27.5638 12.4915 28.1963 13.1086 28.1963 13.8697C28.196 14.6308 27.5638 15.2479 26.7837 15.2479Z" fill="#70625D"/>
<path d="M20.5 0C9.17989 0 0 8.95599 0 20C0 31.044 9.17989 40 20.5 40C31.8201 40 41 31.044 41 20C41 8.95599 31.8201 0 20.5 0ZM32.2005 24.7348C32.1435 25.9573 31.9443 26.792 31.6534 27.5226C31.0418 29.0652 29.7919 30.2847 28.2106 30.8813C27.4621 31.1652 26.6063 31.3593 25.3535 31.4151C24.0982 31.4709 23.6972 31.4844 20.5003 31.4844C17.3031 31.4844 16.9024 31.4709 15.6468 31.4151C14.394 31.3593 13.5382 31.1652 12.7897 30.8813C12.0039 30.593 11.2926 30.141 10.7045 29.5566C10.1058 28.9832 9.64253 28.2889 9.34693 27.5226C9.05602 26.7923 8.85677 25.9573 8.79984 24.7351C8.74197 23.5101 8.72852 23.1189 8.72852 20C8.72852 16.8811 8.74197 16.4899 8.79952 15.2652C8.85645 14.0427 9.0554 13.208 9.34631 12.4774C9.64191 11.7111 10.1055 11.0168 10.7045 10.4434C11.2923 9.85901 12.0039 9.40704 12.7894 9.11865C13.5382 8.83484 14.3937 8.64075 15.6468 8.5849C16.9021 8.52905 17.3031 8.51562 20.5 8.51562C23.6969 8.51562 24.0979 8.52905 25.3532 8.58521C26.6063 8.64075 27.4618 8.83484 28.2106 9.11835C28.9961 9.40674 29.7077 9.85901 30.2958 10.4434C30.8945 11.0172 31.3581 11.7111 31.6534 12.4774C31.9446 13.208 32.1435 14.0427 32.2008 15.2652C32.258 16.4899 32.2715 16.8811 32.2715 20C32.2715 23.1189 32.258 23.5101 32.2005 24.7348Z" fill="#70625D"/>
</svg>
